
<svg width="1024" height="500" xmlns="http://www.w3.org/2000/svg">
  <defs>
    <linearGradient id="grad1" x1="0%" y1="0%" x2="100%" y2="100%">
      <stop offset="0%" style="stop-color:#3b82f6;stop-opacity:1" />
      <stop offset="100%" style="stop-color:#1d4ed8;stop-opacity:1" />
    </linearGradient>
  </defs>
  
  <rect width="1024" height="500" fill="url(#grad1)"/>
  
  <!-- Calendar Icon -->
  <rect x="200" y="150" width="120" height="100" rx="10" fill="white" opacity="0.9"/>
  <rect x="210" y="130" width="20" height="30" rx="5" fill="white"/>
  <rect x="270" y="130" width="20" height="30" rx="5" fill="white"/>
  <line x1="220" y1="180" x2="300" y2="180" stroke="#3b82f6" stroke-width="2"/>
  <line x1="220" y1="200" x2="300" y2="200" stroke="#3b82f6" stroke-width="2"/>
  <line x1="220" y1="220" x2="280" y2="220" stroke="#3b82f6" stroke-width="2"/>
  
  <!-- Book Icon -->
  <rect x="400" y="150" width="120" height="100" rx="10" fill="white" opacity="0.9"/>
  <rect x="410" y="160" width="100" height="80" rx="5" fill="#f8fafc"/>
  <line x1="420" y1="180" x2="490" y2="180" stroke="#3b82f6" stroke-width="2"/>
  <line x1="420" y1="200" x2="500" y2="200" stroke="#3b82f6" stroke-width="2"/>
  <line x1="420" y1="220" x2="480" y2="220" stroke="#3b82f6" stroke-width="2"/>
  
  <!-- Settings Icon -->
  <circle cx="660" cy="200" r="60" fill="white" opacity="0.9"/>
  <circle cx="660" cy="200" r="25" fill="none" stroke="#3b82f6" stroke-width="3"/>
  <circle cx="660" cy="200" r="8" fill="#3b82f6"/>
  
  <!-- Title Text -->
  <text x="512" y="350" font-family="Arial, sans-serif" font-size="48" font-weight="bold" 
        text-anchor="middle" fill="white">Daily Focus</text>
  <text x="512" y="390" font-family="Arial, sans-serif" font-size="24" 
        text-anchor="middle" fill="white" opacity="0.9">Plan • Reflect • Focus</text>
</svg>
